<svg xmlns="http://www.w3.org/2000/svg" width="32" height="32" viewBox="0 0 24 24" fill="none" stroke="#ffffff" stroke-width="2" stroke-linecap="round" stroke-linejoin="round">
  <path d="M2 6c.6.5 1.2 1 2.5 1C5.8 7 7 6 7 6c.6-.5 1.2-1 2.5-1C10.8 5 12 6 12 6c.6.5 1.2 1 2.5 1C15.8 7 17 6 17 6c.6-.5 1.2-1 2.5-1C20.8 5 22 6 22 6"/>
  <path d="M2 12c.6.5 1.2 1 2.5 1C5.8 13 7 12 7 12c.6-.5 1.2-1 2.5-1C10.8 11 12 12 12 12c.6.5 1.2 1 2.5 1C15.8 13 17 12 17 12c.6-.5 1.2-1 2.5-1C20.8 11 22 12 22 12"/>
  <path d="M2 18c.6.5 1.2 1 2.5 1C5.8 19 7 18 7 18c.6-.5 1.2-1 2.5-1C10.8 17 12 18 12 18c.6.5 1.2 1 2.5 1C15.8 19 17 18 17 18c.6-.5 1.2-1 2.5-1C20.8 17 22 18 22 18"/>
</svg>
